<svg xmlns="http://www.w3.org/2000/svg" version="1.1" xmlns:xlink="http://www.w3.org/1999/xlink" xmlns:svgjs="http://svgjs.dev/svgjs" width="1000" height="1000" viewBox="0 0 1000 1000"><rect width="1000" height="1000" fill="#6936f5"></rect><g transform="matrix(0.7,0,0,0.7,149.5757626252224,287.84427968805755)"><svg viewBox="0 0 396 240" data-background-color="#6936f5" preserveAspectRatio="xMidYMid meet" height="606" width="1000" xmlns="http://www.w3.org/2000/svg" xmlns:xlink="http://www.w3.org/1999/xlink"><g id="tight-bounds" transform="matrix(1,0,0,1,0.23999716786329373,0.031524928963165166)"><svg viewBox="0 0 395.52 239.93695014207367" height="239.93695014207367" width="395.52"><g><svg viewBox="0 0 395.52 239.93695014207367" height="239.93695014207367" width="395.52"><g transform="matrix(1,0,0,1,0,144.88126317288192)"><svg viewBox="0 0 395.52 95.05568696919175" height="95.05568696919175" width="395.52"><g><svg viewBox="0 0 395.52 95.05568696919175" height="95.05568696919175" width="395.52"><g><svg viewBox="0 0 395.52 57.245564061822904" height="57.245564061822904" width="395.52"><g transform="matrix(1,0,0,1,0,0)"><svg width="395.52" viewBox="3.8499999046325684 -37.5 346.1199951171875 50.099998474121094" height="57.245564061822904" data-palette-color="#ffffff"><path d="M26.75 0L3.85 0 3.85-35 26.25-35 26.25-28.8 10.4-28.8 10.4-21.35 22.7-21.35 22.7-15.15 10.4-15.15 10.4-6.2 26.75-6.2 26.75 0ZM42.4 0.7L42.4 0.7Q40.27 0.7 38.02 0.29 35.77-0.13 33.85-0.71 31.92-1.3 30.8-1.85L30.8-1.85 31.55-8.65Q33.3-7.8 35.2-7.08 37.1-6.35 39.1-5.9 41.1-5.45 43.15-5.45L43.15-5.45Q45.7-5.45 47.25-6.45 48.8-7.45 48.8-9.5L48.8-9.5Q48.8-11.08 47.92-12.04 47.05-13 45.25-13.76 43.45-14.53 40.65-15.5L40.65-15.5Q37.85-16.48 35.62-17.71 33.4-18.95 32.1-20.85 30.8-22.75 30.8-25.7L30.8-25.7Q30.8-28.6 32.22-30.86 33.65-33.13 36.48-34.41 39.32-35.7 43.55-35.7L43.55-35.7Q46.75-35.7 49.65-34.99 52.55-34.27 54.6-33.45L54.6-33.45 53.95-26.9Q51-28.23 48.41-28.91 45.82-29.6 43.15-29.6L43.15-29.6Q40.35-29.6 38.82-28.68 37.3-27.75 37.3-25.9L37.3-25.9Q37.3-24.43 38.15-23.53 39-22.63 40.57-21.99 42.15-21.35 44.35-20.65L44.35-20.65Q48.15-19.45 50.73-18.01 53.32-16.57 54.64-14.54 55.95-12.5 55.95-9.5L55.95-9.5Q55.95-8 55.47-6.24 55-4.48 53.6-2.9 52.2-1.33 49.51-0.31 46.82 0.7 42.4 0.7ZM85.69 0L79.29 0 79.29-28.8 69.39-28.8 69.39-35 95.59-35 95.59-28.8 85.69-28.8 85.69 0ZM107.64 0.5L107.64 0.5Q103.12 0.5 100.1-1.31 97.09-3.13 95.59-6.11 94.09-9.1 94.09-12.65L94.09-12.65Q94.09-16.07 95.5-18.98 96.92-21.88 99.64-23.64 102.37-25.4 106.29-25.4L106.29-25.4Q109.89-25.4 112.29-23.93 114.69-22.45 115.89-19.99 117.09-17.53 117.09-14.55L117.09-14.55Q117.09-13.73 116.99-12.89 116.89-12.05 116.69-11.15L116.69-11.15 100.54-11.15Q100.89-8.83 102-7.39 103.12-5.95 104.73-5.28 106.34-4.6 108.19-4.6L108.19-4.6Q110.37-4.6 112.24-5.16 114.12-5.73 115.69-6.65L115.69-6.65 115.99-1.4Q114.57-0.65 112.44-0.08 110.32 0.5 107.64 0.5ZM100.69-15.35L100.69-15.35 110.79-15.35Q110.79-16.48 110.37-17.61 109.94-18.75 108.95-19.53 107.97-20.3 106.29-20.3L106.29-20.3Q103.89-20.3 102.52-18.9 101.14-17.5 100.69-15.35ZM132.94 0.5L132.94 0.5Q128.64 0.5 125.73-1.26 122.81-3.03 121.33-5.96 119.84-8.9 119.84-12.45L119.84-12.45Q119.84-16.03 121.31-18.99 122.79-21.95 125.74-23.73 128.69-25.5 133.14-25.5L133.14-25.5Q135.24-25.5 136.94-25.04 138.64-24.58 139.84-23.9L139.84-23.9 139.34-18.9Q138.19-19.5 136.75-19.9 135.31-20.3 133.74-20.3L133.74-20.3Q130.14-20.3 128.16-18.13 126.19-15.95 126.19-12.45L126.19-12.45Q126.19-9.13 128.21-6.86 130.24-4.6 133.69-4.6L133.69-4.6Q135.16-4.6 136.6-5.04 138.04-5.48 139.39-6.25L139.39-6.25 139.94-1Q138.64-0.33 136.8 0.09 134.96 0.5 132.94 0.5ZM150.24 0L144.03 0 144.03-37.5 150.24-37.5 150.24-21.35 148.84-22.45Q150.41-23.55 152.26-24.48 154.11-25.4 156.69-25.4L156.69-25.4Q159.99-25.4 162.06-23.94 164.13-22.48 165.11-19.89 166.09-17.3 166.09-13.9L166.09-13.9 166.09 0 159.88 0 159.88-13.45Q159.88-16.95 158.76-18.63 157.63-20.3 155.09-20.3L155.09-20.3Q152.91-20.3 151.52-19.29 150.13-18.28 149.09-16.55L149.09-16.55 150.24-19.9 150.24 0ZM177.83 0L171.63 0 171.63-25 177.43-25 177.68-20.35 176.23-22.25Q177.66-23.45 179.63-24.43 181.61-25.4 184.23-25.4L184.23-25.4Q189.03-25.4 191.36-22.21 193.68-19.03 193.68-13.95L193.68-13.95 193.68 0 187.48 0 187.48-13.45Q187.48-16.95 186.32-18.63 185.16-20.3 182.53-20.3L182.53-20.3Q180.41-20.3 179.06-19.26 177.71-18.23 176.68-16.5L176.68-16.5 177.83-19.55 177.83 0ZM210.58 0.5L210.58 0.5Q206.51 0.5 203.63-1.28 200.76-3.05 199.24-6 197.73-8.95 197.73-12.45L197.73-12.45Q197.73-15.98 199.24-18.95 200.76-21.93 203.63-23.71 206.51-25.5 210.58-25.5L210.58-25.5Q214.66-25.5 217.53-23.71 220.41-21.93 221.92-18.95 223.43-15.98 223.43-12.45L223.43-12.45Q223.43-8.95 221.92-6 220.41-3.05 217.53-1.28 214.66 0.5 210.58 0.5ZM210.58-4.6L210.58-4.6Q213.71-4.6 215.39-6.79 217.08-8.97 217.08-12.45L217.08-12.45Q217.08-15.98 215.39-18.19 213.71-20.4 210.58-20.4L210.58-20.4Q207.48-20.4 205.78-18.19 204.08-15.98 204.08-12.45L204.08-12.45Q204.08-8.97 205.78-6.79 207.48-4.6 210.58-4.6ZM236.38 0.5L234.13 0.5Q231.9 0.5 230.49-0.39 229.08-1.28 228.4-2.76 227.73-4.25 227.73-6.05L227.73-6.05 227.73-37.5 233.93-37.5 233.93-8.6Q233.93-6.6 234.17-5.76 234.4-4.93 235.05-4.76 235.7-4.6 236.93-4.6L236.93-4.6 236.38 0.5ZM251.98 0.5L251.98 0.5Q247.9 0.5 245.03-1.28 242.15-3.05 240.64-6 239.13-8.95 239.13-12.45L239.13-12.45Q239.13-15.98 240.64-18.95 242.15-21.93 245.03-23.71 247.9-25.5 251.98-25.5L251.98-25.5Q256.05-25.5 258.93-23.71 261.8-21.93 263.31-18.95 264.83-15.98 264.83-12.45L264.83-12.45Q264.83-8.95 263.31-6 261.8-3.05 258.93-1.28 256.05 0.5 251.98 0.5ZM251.98-4.6L251.98-4.6Q255.1-4.6 256.79-6.79 258.48-8.97 258.48-12.45L258.48-12.45Q258.48-15.98 256.79-18.19 255.1-20.4 251.98-20.4L251.98-20.4Q248.88-20.4 247.18-18.19 245.48-15.98 245.48-12.45L245.48-12.45Q245.48-8.97 247.18-6.79 248.88-4.6 251.98-4.6ZM279.02 12.6L279.02 12.6Q275.52 12.6 272.91 11.74 270.3 10.88 268.86 9.28 267.42 7.68 267.42 5.45L267.42 5.45Q267.42 3.58 268.46 2.11 269.5 0.65 271.47-0.45L271.47-0.45Q270.47-1.05 269.87-1.95 269.27-2.85 269.27-4L269.27-4Q269.27-5.2 269.96-6.09 270.65-6.98 271.77-7.5L271.77-7.5Q269.87-8.85 268.9-10.96 267.92-13.08 267.92-15.55L267.92-15.55Q267.92-18.25 269.1-20.51 270.27-22.78 272.54-24.14 274.8-25.5 278.07-25.5L278.07-25.5Q279.77-25.5 281.21-25.08 282.65-24.65 283.77-23.9L283.77-23.9Q284.52-24.33 285.95-24.66 287.37-25 289.12-25L289.12-25Q289.55-25 289.94-25 290.32-25 290.72-25L290.72-25 290.32-21.1Q289.77-21.1 289.21-21.1 288.65-21.1 288.07-21.1L288.07-21.1Q287.85-21.1 287.47-21.1 287.1-21.1 286.67-21.05L286.67-21.05Q287.42-19.9 287.8-18.48 288.17-17.05 288.17-15.55L288.17-15.55Q288.17-12.85 287.01-10.59 285.85-8.33 283.6-6.96 281.35-5.6 278.07-5.6L278.07-5.6Q277.37-5.6 276.72-5.7 276.07-5.8 275.42-5.95L275.42-5.95Q274.87-5.73 274.87-5.15L274.87-5.15Q274.87-4.48 275.7-4.13 276.52-3.78 278.27-3.5L278.27-3.5 282.57-2.95Q286.6-2.43 288.89-0.68 291.17 1.07 291.17 4.3L291.17 4.3Q291.17 6.8 289.74 8.66 288.3 10.53 285.57 11.56 282.85 12.6 279.02 12.6ZM279.27 7.9L279.27 7.9Q282.42 7.9 284.05 7.13 285.67 6.35 285.67 4.75L285.67 4.75Q285.67 3.33 284.54 2.65 283.4 1.98 280.92 1.6L280.92 1.6 275.45 0.8Q274.22 1.28 273.4 2.11 272.57 2.95 272.57 4.3L272.57 4.3Q272.57 6.13 274.35 7.01 276.12 7.9 279.27 7.9ZM278.07-10.2L278.07-10.2Q280.3-10.2 281.44-11.66 282.57-13.13 282.57-15.55L282.57-15.55Q282.57-18 281.44-19.45 280.3-20.9 278.07-20.9L278.07-20.9Q275.82-20.9 274.67-19.45 273.52-18 273.52-15.55L273.52-15.55Q273.52-13.13 274.67-11.66 275.82-10.2 278.07-10.2ZM301.52 0L295.32 0 295.32-25 301.52-25 301.52 0ZM301.52-28.8L295.32-28.8 295.32-35 301.52-35 301.52-28.8ZM319.37 0.5L319.37 0.5Q314.84 0.5 311.83-1.31 308.82-3.13 307.32-6.11 305.82-9.1 305.82-12.65L305.82-12.65Q305.82-16.07 307.23-18.98 308.64-21.88 311.37-23.64 314.09-25.4 318.02-25.4L318.02-25.4Q321.62-25.4 324.02-23.93 326.42-22.45 327.62-19.99 328.82-17.53 328.82-14.55L328.82-14.55Q328.82-13.73 328.72-12.89 328.62-12.05 328.42-11.15L328.42-11.15 312.27-11.15Q312.62-8.83 313.73-7.39 314.84-5.95 316.46-5.28 318.07-4.6 319.92-4.6L319.92-4.6Q322.09-4.6 323.97-5.16 325.84-5.73 327.42-6.65L327.42-6.65 327.72-1.4Q326.29-0.65 324.17-0.08 322.04 0.5 319.37 0.5ZM312.42-15.35L312.42-15.35 322.52-15.35Q322.52-16.48 322.09-17.61 321.67-18.75 320.68-19.53 319.69-20.3 318.02-20.3L318.02-20.3Q315.62-20.3 314.24-18.9 312.87-17.5 312.42-15.35ZM340.17 0.5L340.17 0.5Q337.69 0.5 335.7 0.03 333.72-0.45 331.72-1.35L331.72-1.35 332.27-6.65Q334.19-5.53 336.05-4.84 337.92-4.15 339.97-4.15L339.97-4.15Q341.81-4.15 342.79-4.75 343.77-5.35 343.77-6.65L343.77-6.65Q343.77-7.63 343.25-8.25 342.74-8.88 341.72-9.38 340.69-9.88 339.17-10.45L339.17-10.45Q336.87-11.3 335.25-12.3 333.64-13.3 332.8-14.71 331.97-16.13 331.97-18.2L331.97-18.2Q331.97-20.35 333.09-22 334.22-23.65 336.29-24.58 338.37-25.5 341.22-25.5L341.22-25.5Q343.59-25.5 345.48-24.98 347.37-24.45 348.97-23.55L348.97-23.55 348.42-18.25Q346.74-19.43 345.04-20.19 343.34-20.95 341.31-20.95L341.31-20.95Q339.72-20.95 338.84-20.3 337.97-19.65 337.97-18.45L337.97-18.45Q337.97-17 339.19-16.28 340.42-15.55 343.12-14.5L343.12-14.5Q344.87-13.83 346.15-13.1 347.44-12.38 348.29-11.5 349.14-10.63 349.55-9.51 349.97-8.4 349.97-6.95L349.97-6.95Q349.97-4.58 348.83-2.91 347.69-1.25 345.5-0.38 343.31 0.5 340.17 0.5Z" opacity="1" transform="matrix(1,0,0,1,0,0)" fill="#ffffff" class="undefined-text-0" data-fill-palette-color="primary" id="text-0"></path></svg></g></svg></g><g transform="matrix(1,0,0,1,0,70.75986784328181)"><svg viewBox="0 0 395.52 24.29581912590995" height="24.29581912590995" width="395.52"><g transform="matrix(1,0,0,1,0,0)"><svg width="395.52" viewBox="3.700000047683716 -40.45000076293945 772.3848876953125 47.45000076293945" height="24.29581912590995" data-palette-color="#ffffff"><path d="M34.65-39.95L34.65-39.95Q36.25-39.95 38.15-39.2L38.15-39.2Q39.9-38.5 39.9-36.55L39.9-36.55 39.9-2.1Q39.9 0.3 36.95 0.3L36.95 0.3Q34 0.3 34-2.1L34-2.1 34-27.8 32.55-27.95 30.55-21.45 24.55-1.45Q24 0.3 21.85 0.25L21.85 0.25Q20.9 0.2 20.2-0.25 19.5-0.7 19.25-1.55L19.25-1.55 15.65-13.2Q14.55-16.65 13.45-20.23 12.35-23.8 11.05-28.15L11.05-28.15 9.6-27.95 9.6-2.1Q9.6 0.3 6.65 0.3L6.65 0.3Q3.7 0.3 3.7-2.1L3.7-2.1 3.7-36.55Q3.7-38.45 5.45-39.2L5.45-39.2Q7.3-39.95 9-39.9L9-39.9Q9.75-39.9 10.55-39.7 11.35-39.5 12.05-39.13 12.75-38.75 13.3-38.18 13.85-37.6 14.15-36.85L14.15-36.85 22-10.1Q22.85-13.05 23.8-16.5 24.75-19.95 25.75-23.5 26.75-27.05 27.73-30.53 28.7-34 29.55-37L29.55-37Q29.85-37.7 30.4-38.25 30.95-38.8 31.65-39.18 32.35-39.55 33.13-39.75 33.9-39.95 34.65-39.95ZM54.5-30.1L62.5-30.1Q63.8-30.1 65.17-29.55 66.55-29 67.85-28.15L67.85-28.15 67.8-28.15Q69.1-27.2 69.8-25.68 70.5-24.15 70.5-22.15L70.5-22.15 70.5-7.95Q70.5-3.85 67.8-1.9L67.8-1.9Q65.15 0 62.5 0L62.5 0 54.5 0Q53.2 0 51.85-0.45 50.5-0.9 49.2-1.9L49.2-1.9Q46.5-3.8 46.5-7.95L46.5-7.95 46.5-22.15Q46.5-24.15 47.2-25.68 47.9-27.2 49.2-28.15L49.2-28.15 49.15-28.15Q50.4-29 51.8-29.55 53.2-30.1 54.5-30.1L54.5-30.1ZM55.4-4.7L61.6-4.7Q63.45-4.7 64.22-5.75 65-6.8 65-8L65-8 65-22.1Q65-23.35 64.22-24.38 63.45-25.4 61.6-25.4L61.6-25.4 55.4-25.4Q53.55-25.4 52.77-24.38 52-23.35 52-22.1L52-22.1 52-8Q52-6.8 52.77-5.75 53.55-4.7 55.4-4.7L55.4-4.7ZM82.3-25.4L82.25-2.1Q82.25-0.9 81.4-0.3 80.55 0.3 79.55 0.3L79.55 0.3Q76.8 0.3 76.8-2.1L76.8-2.1 76.8-37.6Q76.8-40 79.55-40L79.55-40Q82.3-40 82.3-37.6L82.3-37.6 82.3-30.1 92.84-30.1Q95.4-30.1 98.15-28.2L98.15-28.2Q100.84-26.3 100.84-22.2L100.84-22.2 100.84-7.3Q100.84-3.15 98.4-1.6L98.4-1.6Q95.95 0 92.8 0L92.8 0 86.9 0Q85.09 0 85-2.35L85-2.35Q85-4.7 86.9-4.7L86.9-4.7 91.9-4.7Q93.75-4.7 94.55-5.38 95.34-6.05 95.34-7.35L95.34-7.35 95.34-21.75Q95.34-23.05 94.55-24.25L94.55-24.25 94.59-24.2Q93.95-25.4 91.95-25.4L91.95-25.4 82.3-25.4ZM112.64-27.9L112.64-2.1Q112.64 0.3 109.89 0.3L109.89 0.3Q107.09 0.3 107.09-2.1L107.09-2.1 107.09-27.9Q107.09-30.3 109.89-30.3L109.89-30.3Q112.64-30.3 112.64-27.9L112.64-27.9ZM113.69-36.6L113.69-36.6Q113.69-35 112.59-33.9 111.49-32.8 109.89-32.8L109.89-32.8Q108.29-32.8 107.17-33.9 106.04-35 106.04-36.6L106.04-36.6Q106.04-38.25 107.17-39.35 108.29-40.45 109.89-40.45L109.89-40.45Q111.49-40.45 112.59-39.35 113.69-38.25 113.69-36.6ZM125.29-37.8L125.29-1.95Q125.29 0.4 122.54 0.4L122.54 0.4Q119.74 0.4 119.74-1.95L119.74-1.95 119.74-37.8Q119.74-40.15 122.54-40.15L122.54-40.15Q125.29-40.15 125.29-37.8L125.29-37.8ZM137.69-22.15L137.69-8Q137.69-6.8 138.46-5.75 139.24-4.7 141.09-4.7L141.09-4.7 147.34-4.7Q149.19-4.7 149.96-5.63 150.74-6.55 150.74-7.75L150.74-7.75 150.74-8.3Q150.74-10.65 153.49-10.65L153.49-10.65Q156.24-10.65 156.24-8.3L156.24-8.3 156.24-7.7Q156.24-5.6 155.56-4.25 154.89-2.9 153.54-1.9L153.54-1.9Q150.89 0 148.24 0L148.24 0 139.84 0Q137.19 0 134.69-1.9L134.69-1.9Q133.49-2.9 132.84-4.42 132.19-5.95 132.19-7.95L132.19-7.95 132.19-22.2Q132.19-26.25 134.69-28.2L134.69-28.2Q135.94-29.1 137.26-29.63 138.59-30.15 139.84-30.15L139.84-30.15 148.24-30.15Q149.44-30.15 150.89-29.68 152.34-29.2 153.59-28.4L153.59-28.4Q154.79-27.55 155.51-26.05 156.24-24.55 156.24-22.5L156.24-22.5 156.24-15.75Q156.24-14.6 155.56-13.7 154.89-12.8 153.09-12.8L153.09-12.8 142.29-12.8Q140.49-12.8 140.39-15.15L140.39-15.15Q140.39-17.5 142.29-17.5L142.29-17.5 150.79-17.5 150.74-22.15Q150.74-23.4 149.96-24.43 149.19-25.45 147.34-25.45L147.34-25.45 141.09-25.45Q139.24-25.45 138.46-24.43 137.69-23.4 137.69-22.15L137.69-22.15ZM202.18-1.2L191.18-34.8 180.23-1.2 180.23-1.25Q179.93-0.5 179.41-0.03 178.88 0.45 178.13 0.45L178.13 0.45Q177.73 0.45 177.36 0.38 176.98 0.3 176.58 0.2L176.58 0.2 176.63 0.2Q173.78-0.7 174.53-3L174.53-3 185.93-37.65Q186.18-38.45 186.81-39 187.43-39.55 188.28-39.65L188.28-39.65Q189.13-39.8 189.93-39.88 190.73-39.95 191.18-39.95L191.18-39.95Q191.63-39.95 192.43-39.88 193.23-39.8 194.08-39.7L194.08-39.7Q194.78-39.6 195.46-38.95 196.13-38.3 196.48-37.65L196.48-37.65Q199.28-29.05 202.16-20.33 205.03-11.6 207.83-3L207.83-3Q208.53-0.7 205.73 0.2L205.73 0.2Q205.33 0.3 205.01 0.38 204.68 0.45 204.28 0.45L204.28 0.45Q203.58 0.45 203.01-0.03 202.43-0.5 202.18-1.25L202.18-1.25 202.18-1.2ZM194.93-12L194.93-12Q194.93-10.4 193.81-9.28 192.68-8.15 191.08-8.15L191.08-8.15Q189.48-8.15 188.38-9.28 187.28-10.4 187.28-12L187.28-12Q187.28-13.6 188.38-14.73 189.48-15.85 191.08-15.85L191.08-15.85Q192.68-15.85 193.81-14.73 194.93-13.6 194.93-12ZM227.93 0L221.98 0Q220.18 0 220.08-2.35L220.08-2.35Q220.08-4.7 221.98-4.7L221.98-4.7 227.03-4.7Q228.88-4.7 229.66-5.75 230.43-6.8 230.43-8L230.43-8 230.43-22.1Q230.43-23.35 229.66-24.43 228.88-25.5 226.98-25.4L226.98-25.4 217.38-25.4 217.38 4.65Q217.38 7 214.63 7L214.63 7Q211.88 7 211.88 4.6L211.88 4.6 211.88-27.15Q211.88-28.9 212.78-29.5 213.68-30.1 214.98-30.1L214.98-30.1 227.93-30.1Q229.23-30.1 230.56-29.65 231.88-29.2 233.28-28.4L233.28-28.4Q234.48-27.55 235.21-26.03 235.93-24.5 235.93-22.45L235.93-22.45 235.93-7.65Q235.93-3.55 233.28-1.8L233.28-1.8Q230.48 0 227.93 0L227.93 0ZM258.23 0L252.28 0Q250.48 0 250.38-2.35L250.38-2.35Q250.38-4.7 252.28-4.7L252.28-4.7 257.33-4.7Q259.18-4.7 259.95-5.75 260.73-6.8 260.73-8L260.73-8 260.73-22.1Q260.73-23.35 259.95-24.43 259.18-25.5 257.28-25.4L257.28-25.4 247.68-25.4 247.68 4.65Q247.68 7 244.93 7L244.93 7Q242.18 7 242.18 4.6L242.18 4.6 242.18-27.15Q242.18-28.9 243.08-29.5 243.98-30.1 245.28-30.1L245.28-30.1 258.23-30.1Q259.53-30.1 260.85-29.65 262.18-29.2 263.58-28.4L263.58-28.4Q264.78-27.55 265.5-26.03 266.23-24.5 266.23-22.45L266.23-22.45 266.23-7.65Q266.23-3.55 263.58-1.8L263.58-1.8Q260.78 0 258.23 0L258.23 0ZM278.18-37.8L278.18-1.95Q278.18 0.4 275.43 0.4L275.43 0.4Q272.63 0.4 272.63-1.95L272.63-1.95 272.63-37.8Q272.63-40.15 275.43-40.15L275.43-40.15Q278.18-40.15 278.18-37.8L278.18-37.8ZM290.72-27.9L290.72-2.1Q290.72 0.3 287.97 0.3L287.97 0.3Q285.17 0.3 285.17-2.1L285.17-2.1 285.17-27.9Q285.17-30.3 287.97-30.3L287.97-30.3Q290.72-30.3 290.72-27.9L290.72-27.9ZM291.77-36.6L291.77-36.6Q291.77-35 290.67-33.9 289.57-32.8 287.97-32.8L287.97-32.8Q286.37-32.8 285.25-33.9 284.12-35 284.12-36.6L284.12-36.6Q284.12-38.25 285.25-39.35 286.37-40.45 287.97-40.45L287.97-40.45Q289.57-40.45 290.67-39.35 291.77-38.25 291.77-36.6ZM321.72-10.3L321.72-7.95Q321.72-3.85 319.02-1.9L319.02-1.9Q316.37 0 313.72 0L313.72 0 305.32 0Q302.67 0 300.17-1.9L300.17-1.9Q298.97-2.9 298.32-4.42 297.67-5.95 297.67-7.95L297.67-7.95 297.67-22.2Q297.67-26.25 300.17-28.2L300.17-28.2Q301.42-29.1 302.75-29.63 304.07-30.15 305.32-30.15L305.32-30.15 313.72-30.15Q314.92-30.15 316.37-29.68 317.82-29.2 319.07-28.4L319.07-28.4Q320.27-27.55 321-26.05 321.72-24.55 321.72-22.5L321.72-22.5 321.72-20Q321.72-17.6 318.97-17.6L318.97-17.6Q316.22-17.6 316.22-20L316.22-20 316.22-22.15Q316.22-23.4 315.45-24.43 314.67-25.45 312.82-25.45L312.82-25.45 306.57-25.45Q304.72-25.45 303.95-24.43 303.17-23.4 303.17-22.15L303.17-22.15 303.17-8Q303.17-6.8 303.95-5.75 304.72-4.7 306.57-4.7L306.57-4.7 312.82-4.7Q314.67-4.7 315.45-5.75 316.22-6.8 316.22-8L316.22-8 316.22-10.3Q316.22-12.65 318.97-12.65L318.97-12.65Q321.72-12.65 321.72-10.3L321.72-10.3ZM342.07 0L335.52 0Q333.97 0 332.57-0.43 331.17-0.85 329.87-1.65L329.87-1.65 329.87-1.6Q327.42-3.15 327.42-7.3L327.42-7.3 327.42-9.75Q327.42-11.8 328.14-13.33 328.87-14.85 330.17-15.75L330.17-15.75 330.12-15.75Q331.37-16.6 332.77-17.03 334.17-17.45 335.47-17.45L335.47-17.45 346.52-17.45 346.52-22.1Q346.52-23.35 345.74-24.38 344.97-25.4 343.12-25.4L343.12-25.4 337.27-25.4Q335.37-25.4 334.64-24.48 333.92-23.55 333.92-22.3L333.92-22.3 333.92-21.9Q333.92-19.3 331.12-19.3L331.12-19.3Q328.32-19.3 328.32-21.9L328.32-21.9 328.32-22.35Q328.32-24.4 329.04-25.8 329.77-27.2 331.02-28.15L331.02-28.15 330.97-28.15Q332.27-29 333.69-29.55 335.12-30.1 336.42-30.1L336.42-30.1 344.02-30.1Q345.27-30.1 346.69-29.55 348.12-29 349.37-28.15L349.37-28.15 349.32-28.15Q350.62-27.2 351.32-25.68 352.02-24.15 352.02-22.15L352.02-22.15 352.02-2.1Q352.02 0.3 349.27 0.3L349.27 0.3Q348.72 0.3 348.24 0.25 347.77 0.2 347.39-0.03 347.02-0.25 346.79-0.68 346.57-1.1 346.57-1.8L346.57-1.8 346.52-12.75 336.42-12.75Q335.32-12.75 334.72-12.5 334.12-12.25 333.77-11.7L333.77-11.7Q333.37-10.85 333.19-10.38 333.02-9.9 333.02-9.3L333.02-9.3 333.02-7.35Q333.02-6.05 333.79-5.38 334.57-4.7 336.47-4.7L336.47-4.7 342.07-4.7Q343.92-4.7 343.92-2.35L343.92-2.35Q343.92-1.35 343.47-0.68 343.02 0 342.07 0L342.07 0ZM369.17-25.4L365.02-25.4 365.02-7.2Q365.02-5.9 365.57-5.2 366.12-4.5 367.92-4.5L367.92-4.5 369.22-4.5Q371.17-4.5 371.07-2.2L371.07-2.2Q371.07 0.15 369.22 0.15L369.22 0.15 367.57 0.15Q365.97 0.15 364.57-0.28 363.17-0.7 361.87-1.5L361.87-1.5 361.87-1.45Q359.42-3.05 359.42-7.15L359.42-7.15 359.42-25.4 357.47-25.4Q355.67-25.4 355.57-27.75L355.57-27.75Q355.57-30.1 357.47-30.1L357.47-30.1 359.42-30.1 359.42-35.45Q359.42-37.85 362.27-37.85L362.27-37.85Q365.02-37.85 365.02-35.45L365.02-35.45 365.02-30.1 369.17-30.1Q371.12-30.1 371.02-27.75L371.02-27.75Q371.02-25.4 369.17-25.4L369.17-25.4ZM381.06-27.9L381.06-2.1Q381.06 0.3 378.31 0.3L378.31 0.3Q375.51 0.3 375.51-2.1L375.51-2.1 375.51-27.9Q375.51-30.3 378.31-30.3L378.31-30.3Q381.06-30.3 381.06-27.9L381.06-27.9ZM382.11-36.6L382.11-36.6Q382.11-35 381.01-33.9 379.91-32.8 378.31-32.8L378.31-32.8Q376.71-32.8 375.59-33.9 374.46-35 374.46-36.6L374.46-36.6Q374.46-38.25 375.59-39.35 376.71-40.45 378.31-40.45L378.31-40.45Q379.91-40.45 381.01-39.35 382.11-38.25 382.11-36.6ZM396.01-30.1L404.01-30.1Q405.31-30.1 406.69-29.55 408.06-29 409.36-28.15L409.36-28.15 409.31-28.15Q410.61-27.2 411.31-25.68 412.01-24.15 412.01-22.15L412.01-22.15 412.01-7.95Q412.01-3.85 409.31-1.9L409.31-1.9Q406.66 0 404.01 0L404.01 0 396.01 0Q394.71 0 393.36-0.45 392.01-0.9 390.71-1.9L390.71-1.9Q388.01-3.8 388.01-7.95L388.01-7.95 388.01-22.15Q388.01-24.15 388.71-25.68 389.41-27.2 390.71-28.15L390.71-28.15 390.66-28.15Q391.91-29 393.31-29.55 394.71-30.1 396.01-30.1L396.01-30.1ZM396.91-4.7L403.11-4.7Q404.96-4.7 405.74-5.75 406.51-6.8 406.51-8L406.51-8 406.51-22.1Q406.51-23.35 405.74-24.38 404.96-25.4 403.11-25.4L403.11-25.4 396.91-25.4Q395.06-25.4 394.29-24.38 393.51-23.35 393.51-22.1L393.51-22.1 393.51-8Q393.51-6.8 394.29-5.75 395.06-4.7 396.91-4.7L396.91-4.7ZM423.81-21.75L423.81-2.1Q423.81 0.3 421.06 0.3L421.06 0.3Q418.31 0.3 418.31-2.1L418.31-2.1 418.31-22.2Q418.31-24.25 418.96-25.75 419.61-27.25 421.01-28.2L421.01-28.2Q423.66-30.1 426.31-30.1L426.31-30.1 434.36-30.1Q436.91-30.1 439.66-28.2L439.66-28.2Q442.36-26.3 442.36-22.2L442.36-22.2 442.36-2.1Q442.36 0.3 439.61 0.3L439.61 0.3Q436.86 0.3 436.86-2.1L436.86-2.1 436.86-21.75Q436.86-23.05 436.06-24.25L436.06-24.25 436.11-24.2Q435.46-25.4 433.46-25.4L433.46-25.4 427.21-25.4Q425.16-25.4 424.51-24.2L424.51-24.2Q423.81-23.15 423.81-21.75L423.81-21.75ZM475.1-5L481.9-5Q483.75-5 484.5-6.05 485.25-7.1 485.25-8.4L485.25-8.4 485.25-31.3Q485.25-32.55 484.5-33.6 483.75-34.65 481.9-34.65L481.9-34.65 470.2-34.65 470.15-2.05Q470.15-0.95 469.3-0.3 468.45 0.35 467.2 0.35L467.2 0.35Q464.25 0.35 464.25-2.05L464.25-2.05 464.25-36.7Q464.25-38.5 465.18-39.1 466.1-39.7 467.4-39.7L467.4-39.7 483.15-39.7Q484.45-39.7 485.85-39.15 487.25-38.6 488.55-37.75L488.55-37.75 488.5-37.75Q489.8-36.8 490.5-35.27 491.2-33.75 491.2-31.75L491.2-31.75 491.2-8Q491.2-3.95 488.5-1.95L488.5-1.95Q487.2-1 485.83-0.48 484.45 0.05 483.15 0.05L483.15 0.05 474.75 0.05Q473.9 0.05 473.43-0.65 472.95-1.35 472.95-2.5L472.95-2.5Q472.95-5 475.1-5L475.1-5ZM503.8-22.15L503.8-8Q503.8-6.8 504.58-5.75 505.35-4.7 507.2-4.7L507.2-4.7 513.45-4.7Q515.3-4.7 516.08-5.63 516.85-6.55 516.85-7.75L516.85-7.75 516.85-8.3Q516.85-10.65 519.6-10.65L519.6-10.65Q522.35-10.65 522.35-8.3L522.35-8.3 522.35-7.7Q522.35-5.6 521.68-4.25 521-2.9 519.65-1.9L519.65-1.9Q517 0 514.35 0L514.35 0 505.95 0Q503.3 0 500.8-1.9L500.8-1.9Q499.6-2.9 498.95-4.42 498.3-5.95 498.3-7.95L498.3-7.95 498.3-22.2Q498.3-26.25 500.8-28.2L500.8-28.2Q502.05-29.1 503.38-29.63 504.7-30.15 505.95-30.15L505.95-30.15 514.35-30.15Q515.55-30.15 517-29.68 518.45-29.2 519.7-28.4L519.7-28.4Q520.9-27.55 521.63-26.05 522.35-24.55 522.35-22.5L522.35-22.5 522.35-15.75Q522.35-14.6 521.68-13.7 521-12.8 519.2-12.8L519.2-12.8 508.4-12.8Q506.6-12.8 506.5-15.15L506.5-15.15Q506.5-17.5 508.4-17.5L508.4-17.5 516.9-17.5 516.85-22.15Q516.85-23.4 516.08-24.43 515.3-25.45 513.45-25.45L513.45-25.45 507.2-25.45Q505.35-25.45 504.58-24.43 503.8-23.4 503.8-22.15L503.8-22.15ZM539.45 0.3L538.9 0.3Q538.8 0.3 538.65 0.28 538.5 0.25 538.35 0.25L538.35 0.25Q538.1 0.25 537.65 0.25L537.65 0.25Q537.2 0.25 536.8 0.2L536.8 0.2Q535.95 0.15 535.35-0.28 534.75-0.7 534.5-1.3L534.5-1.3 526.1-27.1Q525.85-28.15 526.37-28.98 526.9-29.8 528.05-30.2L528.05-30.2Q528.4-30.3 528.75-30.35 529.1-30.4 529.35-30.4L529.35-30.4Q530.9-30.4 531.5-28.7L531.5-28.7 535.15-17.35 539-5.45 546.5-28.7Q547.05-30.45 548.5-30.45L548.5-30.45Q549.05-30.45 549.9-30.2L549.9-30.2Q551.2-29.85 551.7-29.03 552.2-28.2 551.85-27.1L551.85-27.1 543.5-1.3Q543.05 0.1 541.15 0.2L541.15 0.2Q541.05 0.2 540.92 0.23 540.8 0.25 540.7 0.25L540.7 0.25Q540.3 0.3 540 0.3L540 0.3Q539.7 0.3 539.45 0.3L539.45 0.3ZM561.8-22.15L561.8-8Q561.8-6.8 562.57-5.75 563.35-4.7 565.2-4.7L565.2-4.7 571.45-4.7Q573.3-4.7 574.07-5.63 574.85-6.55 574.85-7.75L574.85-7.75 574.85-8.3Q574.85-10.65 577.6-10.65L577.6-10.65Q580.35-10.65 580.35-8.3L580.35-8.3 580.35-7.7Q580.35-5.6 579.67-4.25 579-2.9 577.65-1.9L577.65-1.9Q575 0 572.35 0L572.35 0 563.95 0Q561.3 0 558.8-1.9L558.8-1.9Q557.6-2.9 556.95-4.42 556.3-5.95 556.3-7.95L556.3-7.95 556.3-22.2Q556.3-26.25 558.8-28.2L558.8-28.2Q560.05-29.1 561.37-29.63 562.7-30.15 563.95-30.15L563.95-30.15 572.35-30.15Q573.55-30.15 575-29.68 576.45-29.2 577.7-28.4L577.7-28.4Q578.9-27.55 579.62-26.05 580.35-24.55 580.35-22.5L580.35-22.5 580.35-15.75Q580.35-14.6 579.67-13.7 579-12.8 577.2-12.8L577.2-12.8 566.4-12.8Q564.6-12.8 564.5-15.15L564.5-15.15Q564.5-17.5 566.4-17.5L566.4-17.5 574.9-17.5 574.85-22.15Q574.85-23.4 574.07-24.43 573.3-25.45 571.45-25.45L571.45-25.45 565.2-25.45Q563.35-25.45 562.57-24.43 561.8-23.4 561.8-22.15L561.8-22.15ZM592.39-37.8L592.39-1.95Q592.39 0.4 589.64 0.4L589.64 0.4Q586.84 0.4 586.84-1.95L586.84-1.95 586.84-37.8Q586.84-40.15 589.64-40.15L589.64-40.15Q592.39-40.15 592.39-37.8L592.39-37.8ZM607.29-30.1L615.29-30.1Q616.59-30.1 617.97-29.55 619.34-29 620.64-28.15L620.64-28.15 620.59-28.15Q621.89-27.2 622.59-25.68 623.29-24.15 623.29-22.15L623.29-22.15 623.29-7.95Q623.29-3.85 620.59-1.9L620.59-1.9Q617.94 0 615.29 0L615.29 0 607.29 0Q605.99 0 604.64-0.45 603.29-0.9 601.99-1.9L601.99-1.9Q599.29-3.8 599.29-7.95L599.29-7.95 599.29-22.15Q599.29-24.15 599.99-25.68 600.69-27.2 601.99-28.15L601.99-28.15 601.94-28.15Q603.19-29 604.59-29.55 605.99-30.1 607.29-30.1L607.29-30.1ZM608.19-4.7L614.39-4.7Q616.24-4.7 617.01-5.75 617.79-6.8 617.79-8L617.79-8 617.79-22.1Q617.79-23.35 617.01-24.38 616.24-25.4 614.39-25.4L614.39-25.4 608.19-25.4Q606.34-25.4 605.57-24.38 604.79-23.35 604.79-22.1L604.79-22.1 604.79-8Q604.79-6.8 605.57-5.75 606.34-4.7 608.19-4.7L608.19-4.7ZM645.64 0L639.69 0Q637.89 0 637.79-2.35L637.79-2.35Q637.79-4.7 639.69-4.7L639.69-4.7 644.74-4.7Q646.59-4.7 647.36-5.75 648.14-6.8 648.14-8L648.14-8 648.14-22.1Q648.14-23.35 647.36-24.43 646.59-25.5 644.69-25.4L644.69-25.4 635.09-25.4 635.09 4.65Q635.09 7 632.34 7L632.34 7Q629.59 7 629.59 4.6L629.59 4.6 629.59-27.15Q629.59-28.9 630.49-29.5 631.39-30.1 632.69-30.1L632.69-30.1 645.64-30.1Q646.94-30.1 648.26-29.65 649.59-29.2 650.99-28.4L650.99-28.4Q652.19-27.55 652.91-26.03 653.64-24.5 653.64-22.45L653.64-22.45 653.64-7.65Q653.64-3.55 650.99-1.8L650.99-1.8Q648.19 0 645.64 0L645.64 0ZM675.38-1.95L675.38-21.75Q675.38-22.4 675.18-23.03 674.98-23.65 674.68-24.2L674.68-24.2Q674.03-25.4 671.98-25.4L671.98-25.4 668.78-25.4Q666.73-25.4 666.03-24.2L666.03-24.2Q665.43-23.05 665.43-21.75L665.43-21.75 665.43-1.95Q665.43 0.4 662.68 0.4L662.68 0.4Q659.83 0.4 659.83-1.95L659.83-1.95 659.83-22.2Q659.83-26.3 662.53-28.2L662.53-28.2Q665.28-30.1 667.88-30.1L667.88-30.1 672.93-30.1Q674.08-30.1 675.48-29.65 676.88-29.2 678.18-28.25L678.18-28.25Q679.43-29.2 680.81-29.65 682.18-30.1 683.43-30.1L683.43-30.1 688.43-30.1Q691.08-30.1 693.73-28.2L693.73-28.2Q696.48-26.35 696.48-22.2L696.48-22.2 696.48-1.95Q696.48 0.4 693.68 0.4L693.68 0.4Q690.88 0.4 690.88-1.95L690.88-1.95 690.88-21.75Q690.88-22.4 690.73-23.05 690.58-23.7 690.18-24.25L690.18-24.25 690.23-24.2Q689.83-24.85 689.23-25.13 688.63-25.4 687.48-25.4L687.48-25.4 684.33-25.4Q682.23-25.4 681.58-24.2L681.58-24.2Q680.93-23.1 680.93-21.75L680.93-21.75 680.93-1.95Q680.93 0.4 678.18 0.4L678.18 0.4Q675.38 0.4 675.38-1.95L675.38-1.95ZM708.08-22.15L708.08-8Q708.08-6.8 708.86-5.75 709.63-4.7 711.48-4.7L711.48-4.7 717.73-4.7Q719.58-4.7 720.36-5.63 721.13-6.55 721.13-7.75L721.13-7.75 721.13-8.3Q721.13-10.65 723.88-10.65L723.88-10.65Q726.63-10.65 726.63-8.3L726.63-8.3 726.63-7.7Q726.63-5.6 725.96-4.25 725.28-2.9 723.93-1.9L723.93-1.9Q721.28 0 718.63 0L718.63 0 710.23 0Q707.58 0 705.08-1.9L705.08-1.9Q703.88-2.9 703.23-4.42 702.58-5.95 702.58-7.95L702.58-7.95 702.58-22.2Q702.58-26.25 705.08-28.2L705.08-28.2Q706.33-29.1 707.66-29.63 708.98-30.15 710.23-30.15L710.23-30.15 718.63-30.15Q719.83-30.15 721.28-29.68 722.73-29.2 723.98-28.4L723.98-28.4Q725.18-27.55 725.91-26.05 726.63-24.55 726.63-22.5L726.63-22.5 726.63-15.75Q726.63-14.6 725.96-13.7 725.28-12.8 723.48-12.8L723.48-12.8 712.68-12.8Q710.88-12.8 710.78-15.15L710.78-15.15Q710.78-17.5 712.68-17.5L712.68-17.5 721.18-17.5 721.13-22.15Q721.13-23.4 720.36-24.43 719.58-25.45 717.73-25.45L717.73-25.45 711.48-25.45Q709.63-25.45 708.86-24.43 708.08-23.4 708.08-22.15L708.08-22.15ZM738.48-21.75L738.48-2.1Q738.48 0.3 735.73 0.3L735.73 0.3Q732.98 0.3 732.98-2.1L732.98-2.1 732.98-22.2Q732.98-24.25 733.63-25.75 734.28-27.25 735.68-28.2L735.68-28.2Q738.33-30.1 740.98-30.1L740.98-30.1 749.03-30.1Q751.58-30.1 754.33-28.2L754.33-28.2Q757.03-26.3 757.03-22.2L757.03-22.2 757.03-2.1Q757.03 0.3 754.28 0.3L754.28 0.3Q751.53 0.3 751.53-2.1L751.53-2.1 751.53-21.75Q751.53-23.05 750.73-24.25L750.73-24.25 750.78-24.2Q750.13-25.4 748.13-25.4L748.13-25.4 741.88-25.4Q739.83-25.4 739.18-24.2L739.18-24.2Q738.48-23.15 738.48-21.75L738.48-21.75ZM774.18-25.4L770.03-25.4 770.03-7.2Q770.03-5.9 770.58-5.2 771.13-4.5 772.93-4.5L772.93-4.5 774.23-4.5Q776.18-4.5 776.08-2.2L776.08-2.2Q776.08 0.15 774.23 0.15L774.23 0.15 772.58 0.15Q770.98 0.15 769.58-0.28 768.18-0.7 766.88-1.5L766.88-1.5 766.88-1.45Q764.43-3.05 764.43-7.15L764.43-7.15 764.43-25.4 762.48-25.4Q760.68-25.4 760.58-27.75L760.58-27.75Q760.58-30.1 762.48-30.1L762.48-30.1 764.43-30.1 764.43-35.45Q764.43-37.85 767.28-37.85L767.28-37.85Q770.03-37.85 770.03-35.45L770.03-35.45 770.03-30.1 774.18-30.1Q776.13-30.1 776.03-27.75L776.03-27.75Q776.03-25.4 774.18-25.4L774.18-25.4Z" opacity="1" transform="matrix(1,0,0,1,0,0)" fill="#ffffff" class="undefined-text-1" data-fill-palette-color="secondary" id="text-1"></path></svg></g></svg></g></svg></g></svg></g><g transform="matrix(1,0,0,1,150.9057867109488,0)"><svg viewBox="0 0 93.70842657810238 131.36695939142302" height="131.36695939142302" width="93.70842657810238"><g><svg xmlns="http://www.w3.org/2000/svg" xmlns:xlink="http://www.w3.org/1999/xlink" version="1.1" x="0" y="0" viewBox="17.899999618530273 5 64.19999694824219 90" enable-background="new 0 0 100 100" xml:space="preserve" height="131.36695939142302" width="93.70842657810238" class="icon-icon-0" data-fill-palette-color="accent" id="icon-0"><path d="M82 83.4l-17.6-72c-0.1-0.3-0.2-0.7-0.4-1-0.2-0.3-0.4-0.6-0.7-0.8C63 9.3 62.7 9.1 62.3 9c-0.3-0.2-0.7-0.3-1-0.3L22.6 5c-0.4 0-0.8 0-1.2 0.1-0.4 0.1-0.7 0.3-0.9 0.5-0.2 0.2-0.4 0.4-0.5 0.7 0 0 0 0 0-0.1L20 6.4c2.8 19.1 11.9 81.4 12.1 82.9 0.2 1.4 1.2 2.9 3.1 2.9 1.4 0 27.5-3.6 46.6-6.3 0 0 0 0 0-0.1 0.2-0.3 0.3-0.7 0.3-1.1C82.1 84.3 82.1 83.8 82 83.4zM62.1 82.8c-0.1 0.6-0.3 1.2-0.6 1.7-0.3 0.5-0.7 1-1.2 1.3-0.5 0.3-1.1 0.6-1.7 0.6-0.6 0.1-1.3 0-1.9-0.2-0.6-0.2-1.2-0.5-1.7-0.9-0.5-0.4-1-0.9-1.3-1.5-0.4-0.6-0.6-1.3-0.7-2-0.1-0.7-0.1-1.4 0-2.1 0.1-0.6 0.3-1.2 0.7-1.7 0.3-0.5 0.7-0.9 1.2-1.2 0.5-0.3 1.1-0.5 1.7-0.6 0.6-0.1 1.2 0 1.8 0.2 0.6 0.2 1.1 0.5 1.6 0.9 0.5 0.4 0.9 0.9 1.3 1.5 0.3 0.6 0.6 1.2 0.7 1.9C62.2 81.5 62.2 82.2 62.1 82.8zM33.9 73.7L24 8.8 61.5 12l13.8 58L33.9 73.7zM35.2 93c-2.4 0-3.7-1.9-3.9-3.6C31.1 88 22.4 28.1 19.4 7.8l-1.3 2.9c0 0.1-0.1 0.2-0.1 0.3 0 0.1 0 0.2-0.1 0.3 0 0.1 0 0.2 0 0.3 0 0.1 0 0.2 0 0.3l11 79.8c0.1 0.5 0.2 1 0.5 1.4 0.2 0.4 0.6 0.8 0.9 1.1 0.4 0.3 0.8 0.5 1.2 0.6C32 95 32.4 95 32.9 95l42.7-6.4c0 0 0.1 0 0.1 0 0 0 0.1 0 0.1 0 0 0 0.1 0 0.1 0 0 0 0.1 0 0.1 0l4.5-1.5c0 0-0.1 0-0.1 0 0.2 0 0.3-0.1 0.4-0.2C65.2 89.1 36.7 93 35.2 93zM80.3 87.1C80.3 87.1 80.3 87.1 80.3 87.1c-0.1 0-0.1 0-0.2 0 0 0-0.1 0-0.1 0C80.2 87.1 80.3 87.1 80.3 87.1 80.3 87.1 80.3 87.1 80.3 87.1z" fill="#ffffff" data-fill-palette-color="accent"></path></svg></g></svg></g><g></g></svg></g><defs></defs></svg><rect width="395.52" height="239.93695014207367" fill="none" stroke="none" visibility="hidden"></rect></g></svg></g></svg>