<?xml version="1.0" encoding="utf-8"?>
<svg viewBox="0 0 500 500" xmlns="http://www.w3.org/2000/svg">
  <g transform="matrix(0.7, 0, 0, 0.7, -70.332016, 131.148163)">
    <svg viewBox="0 0 396 240" data-background-color="#6936f5" preserveAspectRatio="xMidYMid meet" height="606" width="1000" xmlns="http://www.w3.org/2000/svg" transform="matrix(1, 0, 0, 1, 111.42715945827413, -31.50698991578787)">
      <g id="tight-bounds" transform="matrix(1,0,0,1,0.23999716786329373,0.031524928963165166)">
        <rect width="395.52" height="239.93695014207367" fill="none" stroke="none" visibility="hidden"/>
      </g>
    </svg>
  </g>
  <path d="M 395.321 405.919 L 314.116 73.714 C 313.654 72.33 313.193 70.485 312.27 69.1 C 311.348 67.717 310.425 66.332 309.04 65.41 C 307.656 64.025 306.272 63.102 304.427 62.641 C 303.042 61.719 301.197 61.257 299.812 61.257 L 121.253 44.185 C 119.408 44.185 117.561 44.185 115.716 44.647 C 113.87 45.108 112.487 46.03 111.563 46.953 C 110.64 47.876 109.718 48.8 109.257 50.183 C 109.257 50.183 109.257 50.183 109.257 49.722 L 109.257 50.645 C 122.176 138.771 164.163 426.219 165.086 433.14 C 166.008 439.6 170.622 446.521 179.388 446.521 C 185.848 446.521 306.272 429.911 394.398 417.453 C 394.398 417.453 394.398 417.453 394.398 416.992 C 395.321 415.607 395.783 413.762 395.783 411.917 C 395.783 410.071 395.783 407.764 395.321 405.919 Z M 303.504 403.15 C 303.042 405.919 302.119 408.687 300.735 410.994 C 299.351 413.3 297.506 415.607 295.199 416.992 C 292.891 418.376 290.123 419.76 287.355 419.76 C 284.587 420.221 281.357 419.76 278.589 418.838 C 275.819 417.915 273.051 416.53 270.745 414.685 C 268.438 412.839 266.13 410.532 264.747 407.764 C 262.9 404.996 261.978 401.766 261.517 398.536 C 261.055 395.306 261.055 392.077 261.517 388.847 C 261.978 386.079 262.9 383.309 264.747 381.003 C 266.13 378.696 267.976 376.85 270.283 375.466 C 272.591 374.082 275.359 373.16 278.127 372.698 C 280.895 372.237 283.664 372.698 286.432 373.62 C 289.2 374.543 291.508 375.928 293.814 377.773 C 296.121 379.619 297.967 381.926 299.812 384.694 C 301.197 387.462 302.581 390.23 303.042 393.46 C 303.965 397.152 303.965 400.381 303.504 403.15 Z M 173.39 361.163 L 127.712 61.719 L 300.735 76.483 L 364.407 344.092 L 173.39 361.163 Z M 179.388 450.212 C 168.315 450.212 162.316 441.445 161.394 433.602 C 160.471 427.142 120.331 150.767 106.489 57.104 L 100.491 70.485 C 100.491 70.946 100.029 71.408 100.029 71.868 C 100.029 72.33 100.029 72.791 99.568 73.253 C 99.568 73.714 99.568 74.176 99.568 74.638 C 99.568 75.098 99.568 75.56 99.568 76.021 L 150.321 444.214 C 150.782 446.521 151.244 448.828 152.627 450.674 C 153.55 452.519 155.396 454.364 156.78 455.749 C 158.626 457.133 160.471 458.055 162.316 458.517 C 164.624 459.44 166.469 459.44 168.777 459.44 L 365.792 429.911 C 365.792 429.911 366.254 429.911 366.254 429.911 C 366.254 429.911 366.714 429.911 366.714 429.911 C 366.714 429.911 367.176 429.911 367.176 429.911 C 367.176 429.911 367.637 429.911 367.637 429.911 L 388.4 422.99 C 388.4 422.99 387.939 422.99 387.939 422.99 C 388.862 422.99 389.322 422.528 389.784 422.066 C 317.807 432.217 186.309 450.212 179.388 450.212 Z M 387.477 422.99 C 387.477 422.99 387.477 422.99 387.477 422.99 C 387.016 422.99 387.016 422.99 386.554 422.99 C 386.554 422.99 386.094 422.99 386.094 422.99 C 387.016 422.99 387.477 422.99 387.477 422.99 C 387.477 422.99 387.477 422.99 387.477 422.99 Z" fill="#000000" data-fill-palette-color="accent" style=""/>
</svg>